<svg width="30" height="30" viewBox="0 0 30 30" fill="none" xmlns="http://www.w3.org/2000/svg">
<path opacity="0.7" d="M12.606 3.16985C13.8063 1.58053 16.1937 1.58053 17.394 3.16985L20.0039 6.62567C20.3629 7.10097 20.8552 7.45866 21.4182 7.65318L25.5114 9.06748C27.3938 9.71791 28.1315 11.9884 26.9909 13.6211L24.5108 17.1712C24.1696 17.6595 23.9816 18.2382 23.9706 18.8337L23.8904 23.1636C23.8535 25.155 21.9221 26.5582 20.0168 25.9779L15.874 24.7162C15.3043 24.5427 14.6957 24.5427 14.126 24.7162L9.98318 25.9779C8.07793 26.5582 6.14654 25.155 6.10965 23.1636L6.02944 18.8337C6.01841 18.2382 5.83036 17.6595 5.48925 17.1712L3.00908 13.6211C1.86846 11.9884 2.60619 9.71791 4.48864 9.06748L8.58184 7.65318C9.1448 7.45866 9.63712 7.10097 9.99608 6.62568L12.606 3.16985Z" fill="#BC0909"/>
<path d="M12.4036 20H10.0968L13.6117 9.81818H16.3858L19.8958 20H17.589L15.0385 12.1449H14.959L12.4036 20ZM12.2594 15.9979H17.7083V17.6783H12.2594V15.9979Z" fill="#FFFDFD"/>
</svg>
